PathFileType	4	(X/Y/Z)	C:/Users/beibeiliu/ov580/test_trc/User1\sequence.15_training_dense_left.trc
DataRate	CameraRate	NumFrames	NumMarkers	Units	OrigDataRate	OrigDataStartFrame	OrigNumFrames
120	120	24	19	mm	120	137	273
Frame#	Time	ThumbCMC			ThumbMCP			ThumbIP			ThumbTip			IndexMCP			IndexPIP			IndexTip			MiddleMCP			MiddlePIP			MiddleTip			RingMCP			RingPIP			RingTip			PinkyMCP			PinkyPIP			PinkyTip			BackHand1			BackHand2			BackHand3	
		X0	Y0	Z0	X1	Y1	Z1	X2	Y2	Z2	X3	Y3	Z3	X4	Y4	Z4	X5	Y5	Z5	X6	Y6	Z6	X7	Y7	Z7	X8	Y8	Z8	X9	Y9	Z9	X10	Y10	Z10	X11	Y11	Z11	X12	Y12	Z12	X13	Y13	Z13	X14	Y14	Z14	X15	Y15	Z15	X16	Y16	Z16	X17	Y17	Z17	X18	Y18	Z18	
136	1.13333	-184.692	128.596	28.4565	-147.825	132.719	10.8584	-128.748	125.163	-6.69828	-114.634	100.187	-23.8558	-190.382	117.99	-55.0602	-184.414	110.092	-77.8643	-177.026	101.139	-99.5173	-164.464	96.5656	-52.373	-133.028	101.08	-38.205	-148.729	108.14	-1.16732	-162.537	72.529	-42.4388	-132.717	78.9158	-30.9133	-141.905	87.7547	4.4199	-177.724	47.347	-35.2408	-169.352	39.2578	-48.2162	-165.05	34.3613	-74.144	-211.73	75.4564	0.557847	-223.212	70.3531	29.8746	-218.252	106.101	12.9324	
137	1.14167	-190.853	129.9	28.4458	-155.787	138.163	13.1109	-137.324	130.252	-11.0887	-120.583	113.843	-27.172	-197.73	120.338	-51.4328	-190.521	117.246	-79.8043	-183.328	108.969	-103.228	-172.97	98.3314	-51.6541	-136.895	103.366	-41.4902	-146.815	105.747	-2.72758	-168.37	72.1572	-44.2073	-136.434	78.4079	-32.4058	-144.617	91.5727	1.16282	-182.336	49.9119	-35.6722	-172.476	41.7457	-52.056	-171.201	38.0002	-72.2896	-216.4	74.7119	-1.27278	-224.783	71.0288	31.1886	-223.122	109.059	12.7312	
138	1.15	-196.541	130.804	31.6944	-165.138	140.384	13.64	-144.285	143.802	-12.5986	-125.188	135.464	-27.9911	-203.882	119.806	-54.3432	-197.388	112.933	-80.8873	-189.647	107.573	-106.122	-175.178	96.7269	-55.3929	-142.298	103.831	-43.2181	-147.342	107.872	-5.4825	-174.227	74.9861	-46.2138	-141.268	83.538	-35.556	-145.743	88.2406	-2.6604	-186.352	52.3444	-38.3831	-176.962	42.0186	-53.8123	-175.133	38.9599	-73.4505	-220.532	71.7419	-5.78785	-228.849	71.2063	32.8888	-226.95	108.768	11.3542	
139	1.15833	-202.425	135.543	28.9929	-173.84	147.24	11.3453	-156.753	151.488	-10.9267	-139.539	152.553	-24.8489	-209.569	121.55	-55.9129	-203.294	115.427	-82.5531	-196.249	105.28	-102.549	-179.012	95.8405	-57.1676	-148.689	102.978	-48.6644	-149.327	109.608	-9.17177	-176.033	75.4931	-47.6824	-144.386	83.5899	-34.9469	-151.329	93.4352	-3.91755	-191.872	50.8932	-33.6271	-181.527	43.0999	-51.1521	-175.108	36.4953	-75.777	-223.697	73.2597	-0.707781	-232.733	69.7467	27.3555	-231.234	104.861	14.2311	
140	1.16667	-209.472	133.889	28.2076	-184.003	150.724	14.0047	-168.256	160.304	-8.71827	-150.568	168.974	-25.636	-212.418	116.099	-56.1846	-207.271	110.199	-83.0905	-201.126	101.244	-103.968	-186.7	97.489	-55.5338	-151.988	100.851	-48.6033	-155.071	108.643	-8.21481	-181.349	75.7443	-49.2955	-148.152	85.5708	-36.6236	-155.026	94.0361	-5.91888	-193.949	49.1688	-36.2472	-184.747	42.4571	-52.411	-180.741	40.0126	-74.5033	-226.586	72.3118	-2.38251	-235.63	70.3686	32.59	-236.658	107.937	10.6772	
141	1.175	-214.427	135.094	29.2522	-192.242	150.508	12.1841	-179.567	166.908	-7.1051	-165.66	174.612	-20.5571	-215.211	117.416	-55.3256	-209.628	110.088	-79.5712	-202.827	101.823	-107.435	-189.84	93.2105	-56.9118	-153.153	103.704	-47.8975	-156.058	108.553	-10.9897	-180.356	70.7319	-49.6183	-151.458	79.8557	-37.8027	-154.745	88.3979	-7.36611	-195.606	44.9441	-38.9514	-188.37	40.696	-50.9225	-183.349	34.9253	-78.1716	-228.227	70.6631	-6.75536	-238.881	67.8149	27.0861	-236.792	103.135	11.4353	
142	1.18333	-218.741	134.384	31.1992	-199.286	151.615	12.2623	-187.024	166.73	-8.55327	-174.831	177.966	-22.2964	-217.291	113.111	-55.9666	-209.863	103.338	-81.1768	-201.722	95.1793	-103.599	-188.288	93.6001	-57.9089	-154.947	97.1804	-49.4072	-160.017	103.487	-8.85696	-183.874	71.2168	-48.5636	-151.875	77.9174	-37.1181	-158.422	93.285	-4.68566	-195.676	41.816	-38.122	-188.29	40.3824	-52.7069	-183.859	30.2561	-74.0033	-230.366	69.0078	-5.2521	-240.554	63.7623	26.319	-239.7	99.5802	11.4022	
143	1.19167	-221.954	130.555	28.5286	-203.254	147.745	10.8275	-193.825	164.895	-8.27298	-184.144	179.37	-21.7026	-215.066	109.611	-56.7577	-208.569	101.5	-80.4159	-198.698	93.1552	-104.605	-185.484	86.956	-57.815	-153.288	94.6965	-45.938	-159.815	105.238	-8.47687	-182.365	66.807	-46.7554	-149.145	77.0938	-32.6755	-154.098	87.9661	-5.25663	-195.774	40.4133	-32.8193	-186.116	37.1928	-51.4794	-179.031	26.9109	-75.4725	-231.404	67.0089	-7.39018	-240.249	60.6192	27.2921	-238.737	95.9834	10.5901	
144	1.2	-222.272	126.39	28.5107	-208.087	148.122	9.20242	-199.462	163.4	-10.6922	-193.33	182.418	-22.3821	-212.888	104.417	-56.7729	-203.644	99.3684	-82.2475	-193.916	89.6053	-107.475	-184.863	83.1878	-56.0348	-152.182	91.5293	-47.3502	-159.253	104.375	-8.06937	-174.957	65.2006	-46.508	-148.462	73.9083	-35.1942	-154.212	85.5287	0.111251	-191.96	40.3413	-32.4087	-179.547	31.1625	-50.0255	-175.546	23.9726	-68.6177	-228.529	62.8047	-5.72446	-239.897	58.3527	27.9236	-237.892	94.5758	7.17549	
145	1.20833	-222.709	124.75	24.1196	-208.987	143.444	8.59022	-201.646	160.19	-13.2438	-197.628	178.005	-22.52	-206.033	97.9345	-60.0422	-198.177	91.833	-79.8219	-188.151	83.3824	-101.741	-180.05	77.7073	-52.9943	-147.791	86.301	-43.6227	-156.842	100.873	-4.27147	-175.384	60.4754	-43.0159	-143.35	69.6909	-30.5296	-151.204	83.2028	0.823981	-184.898	30.7523	-32.851	-174.273	25.5183	-44.4799	-166.807	17.678	-65.6553	-223.545	55.442	-3.33807	-238.043	53.1516	28.1922	-236.286	90.7473	9.30247	
146	1.21667	-219.778	116.178	25.472	-206.931	137.352	7.94522	-203.913	158.652	-8.67392	-198.371	172.05	-21.7023	-200.538	91.3174	-57.6777	-191.615	89.0198	-78.1238	-179.49	75.9823	-104.887	-175.507	75.7997	-52.8821	-142.338	82.8419	-41.0368	-150.47	95.0929	-4.661	-166.51	55.4151	-42.2553	-136.73	67.5613	-26.1076	-143.399	77.4155	1.06153	-179.665	28.051	-28.3087	-169.903	23.9849	-42.954	-160.845	16.0304	-65.5679	-219.691	52.2928	-2.08993	-234.809	50.38	27.0366	-235.121	83.5438	8.12609	
147	1.225	-218.052	114.453	23.9117	-208.266	137.727	9.37569	-201.759	150.985	-12.0967	-202.181	172.174	-20.4815	-195.984	91.0382	-56.8076	-184.327	83.6039	-77.6004	-172.611	73.337	-99.0153	-167.191	69.6755	-49.7267	-137.073	80.2731	-39.5254	-144.035	91.4833	-2.69158	-162.674	49.3607	-38.0123	-133.404	65.0474	-25.3205	-141.496	74.9575	6.99927	-175.139	22.7961	-26.3758	-161.893	19.8959	-43.0533	-152.267	11.2033	-63.1774	-214.469	46.258	-4.19617	-232.281	49.6725	30.8726	-230.053	84.6287	8.80267	
148	1.23333	-218.586	113.348	26.4418	-207.535	133.911	7.02602	-202.927	149.076	-11.8379	-203.039	169.922	-19.8518	-190.701	86.2065	-53.9578	-178.128	78.0447	-75.0731	-164.773	66.6053	-97.9851	-164.303	70.7349	-48.7367	-132.237	79.9753	-35.5013	-142.004	87.0159	2.76086	-156.256	46.7522	-35.7647	-129.232	61.9911	-22.7265	-139.442	76.876	7.64246	-170.822	22.7291	-24.4884	-157.214	17.7353	-40.8095	-145.152	8.1029	-60.2869	-210.816	44.766	-3.8684	-231.219	48.9674	30.7429	-227.213	79.9989	7.06096	
149	1.24167	-216.127	108.886	26.3332	-208.204	133.325	10.6355	-204.067	149.294	-14.5807	-204.526	166.11	-24.5553	-184.742	83.1858	-56.997	-174.003	75.1638	-73.0004	-158.11	67.221	-98.7531	-162.182	68.8957	-46.2978	-128.552	75.6993	-34.1246	-141.195	89.6565	5.80454	-154.329	48.8929	-35.2765	-125.938	60.5991	-18.3656	-134.499	71.1813	10.0845	-168.33	22.3426	-21.4609	-154.926	14.5031	-33.8973	-140.51	6.15529	-55.1272	-209.43	41.5659	-2.96195	-226.851	42.8574	29.9146	-226.253	80.2181	7.20337	
150	1.25	-215.604	107.266	23.9958	-207.61	130.848	6.00103	-206.537	146.609	-11.0957	-207.959	164.033	-20.6092	-184.697	83.2947	-53.3269	-171.474	78.8908	-77.0535	-156.303	65.3029	-95.0216	-157.118	65.4369	-45.4678	-127.149	75.8246	-28.5741	-136.941	87.504	3.60909	-151.028	50.5458	-35.3161	-125.344	61.573	-16.3069	-136.788	73.448	11.6855	-165.705	18.5809	-21.7217	-150.488	14.5359	-34.937	-138.92	4.0087	-55.1123	-210.074	43.7813	-0.0254766	-225.755	44.2656	28.8364	-226.261	78.5138	6.94748	
151	1.25833	-219.019	111.46	23.3497	-209.563	127.635	6.14301	-210.808	147.414	-15.9675	-210.963	161.717	-25.0229	-186.554	85.0489	-53.2642	-172.463	79.1895	-74.9778	-155.719	67.9334	-96.0574	-160.782	66.3581	-44.8864	-127.813	77.502	-31.5702	-140.417	89.8558	5.11086	-150.217	49.4226	-34.6171	-126.477	63.9172	-16.6307	-135.585	74.4579	10.5832	-165.106	22.7191	-24.5091	-150.813	14.9929	-34.5409	-139.324	7.24176	-51.6944	-209.955	40.9168	-4.41708	-226.558	42.2603	27.5564	-223.933	75.0843	4.05678	
152	1.26667	-221.905	111.029	24.1756	-215.505	130.387	10.4352	-216.991	147.385	-12.1441	-219.359	162.114	-21.2721	-189.556	89.2548	-56.8891	-176.418	84.8647	-78.5094	-162.183	74.0652	-96.601	-163.277	70.0097	-47.8279	-132.532	83.113	-34.9975	-142.622	90.9484	2.42984	-157.691	52.5115	-36.5745	-130.099	64.8791	-21.1626	-141.739	77.0906	11.1187	-167.185	22.1077	-23.6406	-152.197	21.3915	-38.3364	-137.388	14.8523	-55.737	-212.925	44.2962	-1.83458	-230.986	46.8781	26.7779	-228.505	77.1969	6.81715	
153	1.275	-225.835	110.271	25.4409	-223.811	133.566	9.24998	-222.64	146.064	-13.7494	-226.458	162.937	-20.3515	-196.668	88.9335	-54.1973	-183.263	86.7441	-81.7559	-167.147	75.6957	-100.873	-167.601	76.2412	-51.6442	-138.255	84.8763	-36.4697	-148.927	97.0946	-0.231316	-163.113	51.6179	-37.3474	-133.923	69.523	-21.9938	-143.862	81.5528	4.81086	-172.371	29.1902	-27.3381	-153.653	22.964	-40.9121	-140.262	19.9398	-58.2761	-215.157	44.3525	-6.03429	-233.89	45.3127	28.5958	-234.336	78.4193	7.84795	
154	1.28333	-231.974	111.542	24.8896	-232.278	136.736	7.21516	-233.696	152.22	-16.2322	-235.088	164.665	-25.1492	-204.29	94.3938	-61.5907	-191.232	87.4501	-81.2977	-177.337	81.0802	-100.999	-176.317	76.1299	-52.379	-146.284	91.0937	-40.6862	-156.982	100.318	-1.52579	-171.819	59.9346	-41.47	-141.019	73.0885	-23.8814	-151.171	83.7476	4.15916	-178.259	30.0816	-28.4833	-161.658	29.7115	-46.5155	-146.434	25.9797	-60.824	-222.53	49.3248	-5.53091	-237.1	47.0493	28.8432	-237.636	82.3963	5.02765	
155	1.29167	-238.918	113.884	27.1523	-235.716	134.394	4.92666	-240.825	152.657	-14.3191	-248.138	169.67	-24.9046	-213.613	99.525	-60.0456	-201.47	95.0235	-85.021	-187.233	86.7089	-106.057	-185.425	81.1209	-55.7978	-153.919	97.1237	-41.0341	-162.165	101.523	-5.56455	-177.45	64.0548	-44.9007	-148.003	75.9556	-30.1682	-158.196	88.6899	0.734294	-182.892	35.1197	-35.4615	-167.432	31.4138	-47.6603	-154.13	29.2578	-66.6989	-229.303	51.932	-7.38691	-244.103	50.0779	27.4531	-245.728	80.4628	7.08104	
156	1.3	-244.406	115.783	22.9014	-242.913	135.059	5.6113	-249.917	154.576	-15.2675	-255.864	171.352	-19.6426	-218.546	96.0312	-63.4678	-208.518	93.5085	-84.8443	-195.122	88.3096	-106.929	-189.045	82.3437	-58.748	-160.412	97.1654	-45.6296	-169.391	103.165	-6.4579	-179.401	63.6799	-47.5185	-155.662	84.3783	-33.2904	-164.616	91.4404	-1.213	-191.236	39.5625	-35.2704	-176.46	36.7315	-50.0075	-162.615	28.7781	-69.4436	-231.915	52.3439	-9.53554	-245.721	52.1443	23.966	-248.504	81.5871	2.33631	
157	1.30833	-250.928	117.91	24.6519	-247.525	137.128	8.2227	-255.219	155.941	-14.8918	-260.477	170.598	-24.0024	-227.346	101.47	-64.7277	-215.565	96.9588	-85.787	-202.6	91.42	-111.332	-197.74	82.9496	-59.0975	-166.196	101.895	-48.2157	-176.09	105.719	-7.6511	-185.065	64.7934	-48.3223	-160.949	85.2725	-36.153	-169.749	92.9834	-3.24534	-193.205	38.4343	-39.0729	-181.678	37.366	-52.588	-170.12	34.1586	-74.2582	-234.881	50.4968	-11.7483	-247.951	49.4938	22.7934	-254.796	86.1167	4.01208	
158	1.31667	-251.628	116.06	20.5184	-252.805	139.144	3.7658	-256.359	153.458	-14.0334	-264.288	170.64	-21.5609	-229.729	98.4353	-66.9158	-218.991	95.7423	-89.1532	-206.827	89.0137	-110.942	-197.76	87.7338	-62.6917	-170.371	101.541	-52.0437	-176.373	106.621	-12.3413	-185.381	67.7165	-51.6039	-163.509	87.5299	-37.9233	-169.813	93.6681	-6.56076	-194.583	37.7857	-40.4522	-183.134	34.8297	-51.0658	-171.532	30.3781	-75.0028	-237.5	52.4248	-8.74536	-249.975	48.4569	22.8743	-257.776	84.6214	1.61986	
159	1.325	-253.525	117.527	22.8948	-254.363	140.224	2.49141	-259.812	155.994	-17.7833	-266.458	172.877	-24.0467	-232.719	102.169	-64.6997	-220.669	96.303	-92.1789	-207.889	88.329	-109.384	-201.532	84.6985	-60.917	-170.164	100.909	-48.647	-180.009	108.527	-11.3475	-188.859	66.4992	-50.0311	-165.001	89.1679	-38.7768	-174.141	96.0604	-7.07726	-197.13	39.9653	-40.1313	-184.459	38.0786	-53.739	-177.374	31.641	-74.332	-239.502	51.007	-9.17716	-251.048	48.6999	21.2029	-257.21	81.9392	0.736977	
